<?xml version="1.0" encoding="UTF-8" standalone="no"?>
<!DOCTYPE svg PUBLIC "-//W3C//DTD SVG 1.1//EN"
 "http://www.w3.org/Graphics/SVG/1.1/DTD/svg11.dtd">
<!-- Generated by graphviz version 2.38.0 (20140413.2041)
 -->
<!-- Title: IControl Pages: 1 -->
<svg width="400pt" height="1598pt"
 viewBox="0.00 0.00 400.00 1598.00" xmlns="http://www.w3.org/2000/svg" xmlns:xlink="http://www.w3.org/1999/xlink">
<g id="graph0" class="graph" transform="scale(1 1) rotate(0) translate(4 1594)">
<title>IControl</title>
<polygon fill="white" stroke="none" points="-4,4 -4,-1594 396,-1594 396,4 -4,4"/>
<!-- Node1 -->
<g id="node1" class="node"><title>Node1</title>
<polygon fill="#bfbfbf" stroke="black" points="0,-791.5 0,-810.5 53,-810.5 53,-791.5 0,-791.5"/>
<text text-anchor="middle" x="26.5" y="-798.5" font-family="Helvetica,sans-Serif" font-size="10.00">IControl</text>
</g>
<!-- Node2 -->
<g id="node2" class="node"><title>Node2</title>
<g id="a_node2"><a xlink:href="class_g_f_x_label_control.html" target="_top" xlink:title="Control to display the graphics backend. ">
<polygon fill="white" stroke="black" points="116,-1570.5 116,-1589.5 211,-1589.5 211,-1570.5 116,-1570.5"/>
<text text-anchor="middle" x="163.5" y="-1577.5" font-family="Helvetica,sans-Serif" font-size="10.00">GFXLabelControl</text>
</a>
</g>
</g>
<!-- Node1&#45;&gt;Node2 -->
<g id="edge1" class="edge"><title>Node1&#45;&gt;Node2</title>
<path fill="none" stroke="midnightblue" d="M27.7509,-820.619C29.3747,-934.029 39.9339,-1502.66 89,-1561 95.7868,-1569.07 105.51,-1573.95 115.671,-1576.85"/>
<polygon fill="midnightblue" stroke="midnightblue" points="31.2502,-820.535 27.614,-810.584 24.2508,-820.631 31.2502,-820.535"/>
</g>
<!-- Node3 -->
<g id="node3" class="node"><title>Node3</title>
<g id="a_node3"><a xlink:href="class_i_bitmap_control.html" target="_top" xlink:title="A basic control to draw a bitmap, or one frame of a stacked bitmap depending on the current value...">
<polygon fill="white" stroke="black" points="119.5,-1532.5 119.5,-1551.5 207.5,-1551.5 207.5,-1532.5 119.5,-1532.5"/>
<text text-anchor="middle" x="163.5" y="-1539.5" font-family="Helvetica,sans-Serif" font-size="10.00">IBitmapControl</text>
</a>
</g>
</g>
<!-- Node1&#45;&gt;Node3 -->
<g id="edge2" class="edge"><title>Node1&#45;&gt;Node3</title>
<path fill="none" stroke="midnightblue" d="M27.84,-820.657C29.9173,-930.745 42.3989,-1467.83 89,-1523 96.5693,-1531.96 107.759,-1536.99 119.137,-1539.73"/>
<polygon fill="midnightblue" stroke="midnightblue" points="31.3387,-820.549 27.6574,-810.614 24.3398,-820.676 31.3387,-820.549"/>
</g>
<!-- Node4 -->
<g id="node4" class="node"><title>Node4</title>
<g id="a_node4"><a xlink:href="class_i_bubble_control.html" target="_top" xlink:title="A special control to draw contextual info as a slider etc is moved If used in the main IControl stack...">
<polygon fill="white" stroke="black" points="120.5,-1494.5 120.5,-1513.5 206.5,-1513.5 206.5,-1494.5 120.5,-1494.5"/>
<text text-anchor="middle" x="163.5" y="-1501.5" font-family="Helvetica,sans-Serif" font-size="10.00">IBubbleControl</text>
</a>
</g>
</g>
<!-- Node1&#45;&gt;Node4 -->
<g id="edge3" class="edge"><title>Node1&#45;&gt;Node4</title>
<path fill="none" stroke="midnightblue" d="M27.9452,-820.949C30.5134,-928.162 44.8951,-1433.03 89,-1485 96.8462,-1494.24 108.545,-1499.3 120.315,-1501.98"/>
<polygon fill="midnightblue" stroke="midnightblue" points="31.4421,-820.77 27.7106,-810.854 24.4439,-820.933 31.4421,-820.77"/>
</g>
<!-- Node5 -->
<g id="node5" class="node"><title>Node5</title>
<g id="a_node5"><a xlink:href="class_i_button_control_base.html" target="_top" xlink:title="A base class for buttons/momentary switches &#45; cannot be linked to parameters. ">
<polygon fill="white" stroke="black" points="108.5,-1456.5 108.5,-1475.5 218.5,-1475.5 218.5,-1456.5 108.5,-1456.5"/>
<text text-anchor="middle" x="163.5" y="-1463.5" font-family="Helvetica,sans-Serif" font-size="10.00">IButtonControlBase</text>
</a>
</g>
</g>
<!-- Node1&#45;&gt;Node5 -->
<g id="edge4" class="edge"><title>Node1&#45;&gt;Node5</title>
<path fill="none" stroke="midnightblue" d="M28.0522,-820.802C31.1061,-924.087 47.327,-1398.16 89,-1447 94.1329,-1453.02 100.897,-1457.26 108.246,-1460.22"/>
<polygon fill="midnightblue" stroke="midnightblue" points="31.5504,-820.687 27.7636,-810.792 24.5533,-820.888 31.5504,-820.687"/>
</g>
<!-- Node9 -->
<g id="node9" class="node"><title>Node9</title>
<g id="a_node9"><a xlink:href="class_i_color_picker_control.html" target="_top" xlink:title="A control for choosing a color. ">
<polygon fill="white" stroke="black" points="110,-1418.5 110,-1437.5 217,-1437.5 217,-1418.5 110,-1418.5"/>
<text text-anchor="middle" x="163.5" y="-1425.5" font-family="Helvetica,sans-Serif" font-size="10.00">IColorPickerControl</text>
</a>
</g>
</g>
<!-- Node1&#45;&gt;Node9 -->
<g id="edge8" class="edge"><title>Node1&#45;&gt;Node9</title>
<path fill="none" stroke="midnightblue" d="M28.1786,-820.865C31.7579,-920.551 49.7832,-1363.31 89,-1409 94.4939,-1415.4 101.835,-1419.79 109.755,-1422.77"/>
<polygon fill="midnightblue" stroke="midnightblue" points="31.6699,-820.554 27.8209,-810.683 24.6742,-820.8 31.6699,-820.554"/>
</g>
<!-- Node10 -->
<g id="node10" class="node"><title>Node10</title>
<g id="a_node10"><a xlink:href="class_i_corner_resizer_control.html" target="_top" xlink:title="A control for resizing the plug&#45;in window by clicking and dragging in the bottom right&#45;hand corner Th...">
<polygon fill="white" stroke="black" points="104,-1380.5 104,-1399.5 223,-1399.5 223,-1380.5 104,-1380.5"/>
<text text-anchor="middle" x="163.5" y="-1387.5" font-family="Helvetica,sans-Serif" font-size="10.00">ICornerResizerControl</text>
</a>
</g>
</g>
<!-- Node1&#45;&gt;Node10 -->
<g id="edge9" class="edge"><title>Node1&#45;&gt;Node10</title>
<path fill="none" stroke="midnightblue" d="M28.317,-820.806C32.4392,-916.535 52.2189,-1328.44 89,-1371 93.1364,-1375.79 98.3057,-1379.45 103.975,-1382.23"/>
<polygon fill="midnightblue" stroke="midnightblue" points="31.8019,-820.37 27.8829,-810.527 24.8081,-820.666 31.8019,-820.37"/>
</g>
<!-- Node11 -->
<g id="node11" class="node"><title>Node11</title>
<g id="a_node11"><a xlink:href="class_i_dir_browse_control_base.html" target="_top" xlink:title="An abstract IControl base class that you can inherit from in order to make a control that pops up a m...">
<polygon fill="white" stroke="black" points="101,-1342.5 101,-1361.5 226,-1361.5 226,-1342.5 101,-1342.5"/>
<text text-anchor="middle" x="163.5" y="-1349.5" font-family="Helvetica,sans-Serif" font-size="10.00">IDirBrowseControlBase</text>
</a>
</g>
</g>
<!-- Node1&#45;&gt;Node11 -->
<g id="edge10" class="edge"><title>Node1&#45;&gt;Node11</title>
<path fill="none" stroke="midnightblue" d="M28.4835,-820.924C33.1971,-912.891 54.6722,-1293.58 89,-1333 92.3756,-1336.88 96.4286,-1340.01 100.874,-1342.54"/>
<polygon fill="midnightblue" stroke="midnightblue" points="31.9702,-820.568 27.971,-810.757 24.979,-820.921 31.9702,-820.568"/>
</g>
<!-- Node13 -->
<g id="node13" class="node"><title>Node13</title>
<g id="a_node13"><a xlink:href="class_i_f_p_s_display_control.html" target="_top" xlink:title="Performance display meter, based on code from NanoVG This is a special control that lives outside the...">
<polygon fill="white" stroke="black" points="110.5,-1304.5 110.5,-1323.5 216.5,-1323.5 216.5,-1304.5 110.5,-1304.5"/>
<text text-anchor="middle" x="163.5" y="-1311.5" font-family="Helvetica,sans-Serif" font-size="10.00">IFPSDisplayControl</text>
</a>
</g>
</g>
<!-- Node1&#45;&gt;Node13 -->
<g id="edge12" class="edge"><title>Node1&#45;&gt;Node13</title>
<path fill="none" stroke="midnightblue" d="M27.1166,-820.95C25.9326,-904.202 25.6667,-1222.91 89,-1295 94.6543,-1301.44 102.176,-1305.83 110.252,-1308.8"/>
<polygon fill="midnightblue" stroke="midnightblue" points="30.6182,-820.872 27.2832,-810.816 23.6192,-820.757 30.6182,-820.872"/>
</g>
<!-- Node14 -->
<g id="node14" class="node"><title>Node14</title>
<g id="a_node14"><a xlink:href="class_i_graphics_live_edit.html" target="_top" xlink:title="A control to enable live modification of control layout in an IGraphics context in debug builds This ...">
<polygon fill="white" stroke="black" points="114.5,-1266.5 114.5,-1285.5 212.5,-1285.5 212.5,-1266.5 114.5,-1266.5"/>
<text text-anchor="middle" x="163.5" y="-1273.5" font-family="Helvetica,sans-Serif" font-size="10.00">IGraphicsLiveEdit</text>
</a>
</g>
</g>
<!-- Node1&#45;&gt;Node14 -->
<g id="edge13" class="edge"><title>Node1&#45;&gt;Node14</title>
<path fill="none" stroke="midnightblue" d="M27.3474,-820.915C27.1544,-900.041 30.4951,-1191.09 89,-1257 95.6495,-1264.49 104.829,-1269.21 114.45,-1272.14"/>
<polygon fill="midnightblue" stroke="midnightblue" points="30.8477,-820.847 27.3954,-810.83 23.8478,-820.813 30.8477,-820.847"/>
</g>
<!-- Node15 -->
<g id="node15" class="node"><title>Node15</title>
<g id="a_node15"><a xlink:href="class_i_knob_control_base.html" target="_top" xlink:title="A base class for knob/dial controls, to handle mouse action and Sender. ">
<polygon fill="white" stroke="red" points="113,-1228.5 113,-1247.5 214,-1247.5 214,-1228.5 113,-1228.5"/>
<text text-anchor="middle" x="163.5" y="-1235.5" font-family="Helvetica,sans-Serif" font-size="10.00">IKnobControlBase</text>
</a>
</g>
</g>
<!-- Node1&#45;&gt;Node15 -->
<g id="edge14" class="edge"><title>Node1&#45;&gt;Node15</title>
<path fill="none" stroke="midnightblue" d="M27.6212,-821.138C28.4888,-896.319 35.371,-1159.31 89,-1219 95.254,-1225.96 103.693,-1230.52 112.623,-1233.48"/>
<polygon fill="midnightblue" stroke="midnightblue" points="31.1176,-820.712 27.5273,-810.744 24.1179,-820.775 31.1176,-820.712"/>
</g>
<!-- Node18 -->
<g id="node18" class="node"><title>Node18</title>
<g id="a_node18"><a xlink:href="class_i_lambda_control.html" target="_top" xlink:title="A control that can be specialised with a lambda function, for quick experiments without making a cust...">
<polygon fill="white" stroke="black" points="117.5,-1190.5 117.5,-1209.5 209.5,-1209.5 209.5,-1190.5 117.5,-1190.5"/>
<text text-anchor="middle" x="163.5" y="-1197.5" font-family="Helvetica,sans-Serif" font-size="10.00">ILambdaControl</text>
</a>
</g>
</g>
<!-- Node1&#45;&gt;Node18 -->
<g id="edge17" class="edge"><title>Node1&#45;&gt;Node18</title>
<path fill="none" stroke="midnightblue" d="M27.9353,-820.653C29.8904,-890.77 40.0631,-1127.31 89,-1181 96.3693,-1189.08 106.686,-1193.92 117.265,-1196.77"/>
<polygon fill="midnightblue" stroke="midnightblue" points="31.4316,-820.459 27.6798,-810.551 24.4338,-820.636 31.4316,-820.459"/>
</g>
<!-- Node19 -->
<g id="node19" class="node"><title>Node19</title>
<g id="a_node19"><a xlink:href="class_i_panel_control.html" target="_top" xlink:title="A basic control to fill a rectangle with a color or gradient. ">
<polygon fill="white" stroke="black" points="124,-1152.5 124,-1171.5 203,-1171.5 203,-1152.5 124,-1152.5"/>
<text text-anchor="middle" x="163.5" y="-1159.5" font-family="Helvetica,sans-Serif" font-size="10.00">IPanelControl</text>
</a>
</g>
</g>
<!-- Node1&#45;&gt;Node19 -->
<g id="edge18" class="edge"><title>Node1&#45;&gt;Node19</title>
<path fill="none" stroke="midnightblue" d="M28.3295,-820.77C31.4837,-886.378 44.8776,-1095.44 89,-1143 97.9634,-1152.66 111.139,-1157.68 123.869,-1160.2"/>
<polygon fill="midnightblue" stroke="midnightblue" points="31.8165,-820.401 27.8676,-810.569 24.8236,-820.718 31.8165,-820.401"/>
</g>
<!-- Node20 -->
<g id="node20" class="node"><title>Node20</title>
<g id="a_node20"><a xlink:href="class_i_popup_menu_control.html" target="_top" xlink:title="A base control for a pop&#45;up menu/drop&#45;down list that stays within the bounds of the IGraphics context...">
<polygon fill="white" stroke="black" points="108.5,-1114.5 108.5,-1133.5 218.5,-1133.5 218.5,-1114.5 108.5,-1114.5"/>
<text text-anchor="middle" x="163.5" y="-1121.5" font-family="Helvetica,sans-Serif" font-size="10.00">IPopupMenuControl</text>
</a>
</g>
</g>
<!-- Node1&#45;&gt;Node20 -->
<g id="edge19" class="edge"><title>Node1&#45;&gt;Node20</title>
<path fill="none" stroke="midnightblue" d="M28.8257,-820.911C33.2762,-881.739 49.6723,-1063.52 89,-1105 94.3499,-1110.64 101.138,-1114.69 108.417,-1117.59"/>
<polygon fill="midnightblue" stroke="midnightblue" points="32.3026,-820.457 28.1111,-810.727 25.3197,-820.947 32.3026,-820.457"/>
</g>
<!-- Node21 -->
<g id="node21" class="node"><title>Node21</title>
<g id="a_node21"><a xlink:href="class_i_slider_control_base.html" target="_top" xlink:title="A base class for slider/fader controls, to handle mouse action and Sender. ">
<polygon fill="white" stroke="red" points="111.5,-1076.5 111.5,-1095.5 215.5,-1095.5 215.5,-1076.5 111.5,-1076.5"/>
<text text-anchor="middle" x="163.5" y="-1083.5" font-family="Helvetica,sans-Serif" font-size="10.00">ISliderControlBase</text>
</a>
</g>
</g>
<!-- Node1&#45;&gt;Node21 -->
<g id="edge20" class="edge"><title>Node1&#45;&gt;Node21</title>
<path fill="none" stroke="midnightblue" d="M29.4515,-820.919C35.2924,-876.496 54.409,-1031.51 89,-1067 95.0712,-1073.23 102.897,-1077.51 111.17,-1080.43"/>
<polygon fill="midnightblue" stroke="midnightblue" points="32.9007,-820.242 28.4058,-810.648 25.9367,-820.951 32.9007,-820.242"/>
</g>
<!-- Node22 -->
<g id="node22" class="node"><title>Node22</title>
<g id="a_node22"><a xlink:href="class_i_s_v_g_control.html" target="_top" xlink:title="A basic control to draw an SVG image to the screen. ">
<polygon fill="white" stroke="black" points="126.5,-1038.5 126.5,-1057.5 200.5,-1057.5 200.5,-1038.5 126.5,-1038.5"/>
<text text-anchor="middle" x="163.5" y="-1045.5" font-family="Helvetica,sans-Serif" font-size="10.00">ISVGControl</text>
</a>
</g>
</g>
<!-- Node1&#45;&gt;Node22 -->
<g id="edge21" class="edge"><title>Node1&#45;&gt;Node22</title>
<path fill="none" stroke="midnightblue" d="M26.6703,-820.927C25.9824,-865.009 30.8262,-971.434 89,-1029 98.8368,-1038.73 112.969,-1043.68 126.218,-1046.13"/>
<polygon fill="midnightblue" stroke="midnightblue" points="30.1695,-820.997 26.9441,-810.905 23.1722,-820.806 30.1695,-820.997"/>
</g>
<!-- Node23 -->
<g id="node23" class="node"><title>Node23</title>
<g id="a_node23"><a xlink:href="class_i_switch_control_base.html" target="_top" xlink:title="A base class for switch controls. ">
<polygon fill="white" stroke="red" points="109.5,-1000.5 109.5,-1019.5 217.5,-1019.5 217.5,-1000.5 109.5,-1000.5"/>
<text text-anchor="middle" x="163.5" y="-1007.5" font-family="Helvetica,sans-Serif" font-size="10.00">ISwitchControlBase</text>
</a>
</g>
</g>
<!-- Node1&#45;&gt;Node23 -->
<g id="edge22" class="edge"><title>Node1&#45;&gt;Node23</title>
<path fill="none" stroke="midnightblue" d="M27.9598,-820.959C29.9693,-859.607 40.0475,-944.903 89,-991 94.7572,-996.421 101.853,-1000.35 109.344,-1003.18"/>
<polygon fill="midnightblue" stroke="midnightblue" points="31.4417,-820.416 27.5611,-810.557 24.4468,-820.684 31.4417,-820.416"/>
</g>
<!-- Node24 -->
<g id="node24" class="node"><title>Node24</title>
<g id="a_node24"><a xlink:href="class_i_text_control.html" target="_top" xlink:title="A basic control to display some text. ">
<polygon fill="white" stroke="red" points="127.5,-962.5 127.5,-981.5 199.5,-981.5 199.5,-962.5 127.5,-962.5"/>
<text text-anchor="middle" x="163.5" y="-969.5" font-family="Helvetica,sans-Serif" font-size="10.00">ITextControl</text>
</a>
</g>
</g>
<!-- Node1&#45;&gt;Node24 -->
<g id="edge23" class="edge"><title>Node1&#45;&gt;Node24</title>
<path fill="none" stroke="midnightblue" d="M29.7733,-820.55C34.6105,-853.011 48.9756,-917.921 89,-953 99.5065,-962.208 113.914,-967.049 127.19,-969.559"/>
<polygon fill="midnightblue" stroke="midnightblue" points="33.2273,-819.972 28.4333,-810.524 26.2889,-820.899 33.2273,-819.972"/>
</g>
<!-- Node25 -->
<g id="node25" class="node"><title>Node25</title>
<g id="a_node25"><a xlink:href="class_i_text_entry_control.html" target="_top" xlink:title="A Text entry widget drawn by IGraphics. ">
<polygon fill="white" stroke="black" points="115,-924.5 115,-943.5 212,-943.5 212,-924.5 115,-924.5"/>
<text text-anchor="middle" x="163.5" y="-931.5" font-family="Helvetica,sans-Serif" font-size="10.00">ITextEntryControl</text>
</a>
</g>
</g>
<!-- Node1&#45;&gt;Node25 -->
<g id="edge24" class="edge"><title>Node1&#45;&gt;Node25</title>
<path fill="none" stroke="midnightblue" d="M32.6526,-820.344C40.4832,-845.926 57.8651,-890.61 89,-915 96.4703,-920.852 105.552,-924.915 114.749,-927.733"/>
<polygon fill="midnightblue" stroke="midnightblue" points="35.9965,-819.308 29.8691,-810.665 29.2692,-821.243 35.9965,-819.308"/>
</g>
<!-- Node26 -->
<g id="node26" class="node"><title>Node26</title>
<g id="a_node26"><a xlink:href="class_i_v_color_swatch_control.html" target="_top" xlink:title="IVColorSwatchControl">
<polygon fill="white" stroke="black" points="104,-886.5 104,-905.5 223,-905.5 223,-886.5 104,-886.5"/>
<text text-anchor="middle" x="163.5" y="-893.5" font-family="Helvetica,sans-Serif" font-size="10.00">IVColorSwatchControl</text>
</a>
</g>
</g>
<!-- Node1&#45;&gt;Node26 -->
<g id="edge25" class="edge"><title>Node1&#45;&gt;Node26</title>
<path fill="none" stroke="midnightblue" d="M37.597,-819.299C48.1627,-836.738 66.3577,-862.432 89,-877 94.9853,-880.851 101.716,-883.923 108.611,-886.372"/>
<polygon fill="midnightblue" stroke="midnightblue" points="40.5827,-817.471 32.5322,-810.584 34.5304,-820.988 40.5827,-817.471"/>
</g>
<!-- Node27 -->
<g id="node27" class="node"><title>Node27</title>
<g id="a_node27"><a xlink:href="class_i_v_display_control.html" target="_top" xlink:title="IVDisplayControl">
<polygon fill="white" stroke="black" points="116,-848.5 116,-867.5 211,-867.5 211,-848.5 116,-848.5"/>
<text text-anchor="middle" x="163.5" y="-855.5" font-family="Helvetica,sans-Serif" font-size="10.00">IVDisplayControl</text>
</a>
</g>
</g>
<!-- Node1&#45;&gt;Node27 -->
<g id="edge26" class="edge"><title>Node1&#45;&gt;Node27</title>
<path fill="none" stroke="midnightblue" d="M48.9706,-816.488C60.4045,-824.151 74.9719,-833.016 89,-839 97.7285,-842.723 107.361,-845.855 116.699,-848.434"/>
<polygon fill="midnightblue" stroke="midnightblue" points="50.7626,-813.472 40.5427,-810.679 46.7897,-819.236 50.7626,-813.472"/>
</g>
<!-- Node28 -->
<g id="node28" class="node"><title>Node28</title>
<g id="a_node28"><a xlink:href="class_i_v_group_control.html" target="_top" xlink:title="IVGroupControl">
<polygon fill="white" stroke="black" points="119,-810.5 119,-829.5 208,-829.5 208,-810.5 119,-810.5"/>
<text text-anchor="middle" x="163.5" y="-817.5" font-family="Helvetica,sans-Serif" font-size="10.00">IVGroupControl</text>
</a>
</g>
</g>
<!-- Node1&#45;&gt;Node28 -->
<g id="edge27" class="edge"><title>Node1&#45;&gt;Node28</title>
<path fill="none" stroke="midnightblue" d="M63.3149,-806.041C80.3537,-808.439 100.877,-811.327 118.822,-813.853"/>
<polygon fill="midnightblue" stroke="midnightblue" points="63.6005,-802.546 53.2102,-804.618 62.6248,-809.478 63.6005,-802.546"/>
</g>
<!-- Node29 -->
<g id="node29" class="node"><title>Node29</title>
<g id="a_node29"><a xlink:href="class_i_v_keyboard_control.html" target="_top" xlink:title="Vectorial keyboard control. ">
<polygon fill="white" stroke="black" points="111.5,-772.5 111.5,-791.5 215.5,-791.5 215.5,-772.5 111.5,-772.5"/>
<text text-anchor="middle" x="163.5" y="-779.5" font-family="Helvetica,sans-Serif" font-size="10.00">IVKeyboardControl</text>
</a>
</g>
</g>
<!-- Node1&#45;&gt;Node29 -->
<g id="edge28" class="edge"><title>Node1&#45;&gt;Node29</title>
<path fill="none" stroke="midnightblue" d="M63.4165,-795.945C78.1378,-793.873 95.4467,-791.437 111.443,-789.186"/>
<polygon fill="midnightblue" stroke="midnightblue" points="62.6248,-792.522 53.2102,-797.382 63.6005,-799.454 62.6248,-792.522"/>
</g>
<!-- Node30 -->
<g id="node30" class="node"><title>Node30</title>
<g id="a_node30"><a xlink:href="class_i_v_plot_control.html" target="_top" xlink:title="a vector plot to display functions and waveforms ">
<polygon fill="white" stroke="black" points="124.5,-734.5 124.5,-753.5 202.5,-753.5 202.5,-734.5 124.5,-734.5"/>
<text text-anchor="middle" x="163.5" y="-741.5" font-family="Helvetica,sans-Serif" font-size="10.00">IVPlotControl</text>
</a>
</g>
</g>
<!-- Node1&#45;&gt;Node30 -->
<g id="edge29" class="edge"><title>Node1&#45;&gt;Node30</title>
<path fill="none" stroke="midnightblue" d="M48.9706,-785.512C60.4045,-777.849 74.9719,-768.984 89,-763 100.153,-758.242 112.782,-754.45 124.387,-751.544"/>
<polygon fill="midnightblue" stroke="midnightblue" points="46.7897,-782.764 40.5427,-791.321 50.7626,-788.528 46.7897,-782.764"/>
</g>
<!-- Node31 -->
<g id="node31" class="node"><title>Node31</title>
<g id="a_node31"><a xlink:href="class_i_v_scope_control.html" target="_top" xlink:title="Vectorial multichannel capable oscilloscope control. ">
<polygon fill="white" stroke="black" points="93.5,-685 93.5,-715 233.5,-715 233.5,-685 93.5,-685"/>
<text text-anchor="start" x="101.5" y="-703" font-family="Helvetica,sans-Serif" font-size="10.00">IVScopeControl&lt; MAXNC,</text>
<text text-anchor="middle" x="163.5" y="-692" font-family="Helvetica,sans-Serif" font-size="10.00"> MAXBUF, QUEUE_SIZE &gt;</text>
</a>
</g>
</g>
<!-- Node1&#45;&gt;Node31 -->
<g id="edge30" class="edge"><title>Node1&#45;&gt;Node31</title>
<path fill="none" stroke="midnightblue" d="M38.0128,-782.789C48.7848,-765.628 67.0364,-740.323 89,-725 94.527,-721.144 100.699,-717.841 107.053,-715.021"/>
<polygon fill="midnightblue" stroke="midnightblue" points="35.003,-781.003 32.8218,-791.371 40.9924,-784.626 35.003,-781.003"/>
</g>
<!-- Node32 -->
<g id="node32" class="node"><title>Node32</title>
<g id="a_node32"><a xlink:href="class_i_v_track_control_base.html" target="_top" xlink:title="A base class for mult&#45;strip/track controls, such as multi&#45;sliders, meters. ">
<polygon fill="white" stroke="red" points="109.5,-646.5 109.5,-665.5 217.5,-665.5 217.5,-646.5 109.5,-646.5"/>
<text text-anchor="middle" x="163.5" y="-653.5" font-family="Helvetica,sans-Serif" font-size="10.00">IVTrackControlBase</text>
</a>
</g>
</g>
<!-- Node1&#45;&gt;Node32 -->
<g id="edge31" class="edge"><title>Node1&#45;&gt;Node32</title>
<path fill="none" stroke="midnightblue" d="M31.8489,-781.082C38.9495,-753.357 55.709,-703.455 89,-676 94.9174,-671.12 101.926,-667.424 109.228,-664.627"/>
<polygon fill="midnightblue" stroke="midnightblue" points="28.3603,-780.623 29.446,-791.162 35.1695,-782.246 28.3603,-780.623"/>
</g>
<!-- Node33 -->
<g id="node33" class="node"><title>Node33</title>
<g id="a_node33"><a xlink:href="class_i_v_x_y_pad_control.html" target="_top" xlink:title="IVXYPadControl">
<polygon fill="white" stroke="black" points="119,-608.5 119,-627.5 208,-627.5 208,-608.5 119,-608.5"/>
<text text-anchor="middle" x="163.5" y="-615.5" font-family="Helvetica,sans-Serif" font-size="10.00">IVXYPadControl</text>
</a>
</g>
</g>
<!-- Node1&#45;&gt;Node33 -->
<g id="edge32" class="edge"><title>Node1&#45;&gt;Node33</title>
<path fill="none" stroke="midnightblue" d="M29.1726,-780.897C33.1578,-746.26 46.3435,-675.366 89,-637 97.2314,-629.596 107.974,-625.006 118.695,-622.179"/>
<polygon fill="midnightblue" stroke="midnightblue" points="25.6594,-780.855 28.1445,-791.154 32.6245,-781.553 25.6594,-780.855"/>
</g>
<!-- Node34 -->
<g id="node34" class="node"><title>Node34</title>
<g id="a_node34"><a xlink:href="class_test_animation_control.html" target="_top" xlink:title="Control to test animation. ">
<polygon fill="white" stroke="black" points="104,-570.5 104,-589.5 223,-589.5 223,-570.5 104,-570.5"/>
<text text-anchor="middle" x="163.5" y="-577.5" font-family="Helvetica,sans-Serif" font-size="10.00">TestAnimationControl</text>
</a>
</g>
</g>
<!-- Node1&#45;&gt;Node34 -->
<g id="edge33" class="edge"><title>Node1&#45;&gt;Node34</title>
<path fill="none" stroke="midnightblue" d="M27.5006,-781.169C28.6238,-740.809 37.0962,-648.74 89,-599 93.2821,-594.896 98.3299,-591.648 103.742,-589.082"/>
<polygon fill="midnightblue" stroke="midnightblue" points="23.9989,-781.261 27.3483,-791.312 30.9981,-781.366 23.9989,-781.261"/>
</g>
<!-- Node35 -->
<g id="node35" class="node"><title>Node35</title>
<g id="a_node35"><a xlink:href="class_test_bezier_control.html" target="_top" xlink:title="Control to test drawing bezier curves. ">
<polygon fill="white" stroke="black" points="113.5,-532.5 113.5,-551.5 213.5,-551.5 213.5,-532.5 113.5,-532.5"/>
<text text-anchor="middle" x="163.5" y="-539.5" font-family="Helvetica,sans-Serif" font-size="10.00">TestBezierControl</text>
</a>
</g>
</g>
<!-- Node1&#45;&gt;Node35 -->
<g id="edge34" class="edge"><title>Node1&#45;&gt;Node35</title>
<path fill="none" stroke="midnightblue" d="M29.955,-781.343C36.781,-729.789 57.576,-592.49 89,-561 95.6099,-554.376 104.207,-549.965 113.181,-547.049"/>
<polygon fill="midnightblue" stroke="midnightblue" points="26.4548,-781.121 28.6474,-791.486 33.3973,-782.016 26.4548,-781.121"/>
</g>
<!-- Node36 -->
<g id="node36" class="node"><title>Node36</title>
<g id="a_node36"><a xlink:href="class_test_color_control.html" target="_top" xlink:title="Control to colors. ">
<polygon fill="white" stroke="black" points="116,-494.5 116,-513.5 211,-513.5 211,-494.5 116,-494.5"/>
<text text-anchor="middle" x="163.5" y="-501.5" font-family="Helvetica,sans-Serif" font-size="10.00">TestColorControl</text>
</a>
</g>
</g>
<!-- Node1&#45;&gt;Node36 -->
<g id="edge35" class="edge"><title>Node1&#45;&gt;Node36</title>
<path fill="none" stroke="midnightblue" d="M29.2494,-780.94C34.6559,-723.536 52.9468,-560.347 89,-523 96.14,-515.604 105.752,-510.951 115.668,-508.056"/>
<polygon fill="midnightblue" stroke="midnightblue" points="25.7345,-780.946 28.3139,-791.222 32.7057,-781.58 25.7345,-780.946"/>
</g>
<!-- Node37 -->
<g id="node37" class="node"><title>Node37</title>
<g id="a_node37"><a xlink:href="class_test_cursor_control.html" target="_top" xlink:title="Control to test changing the platform cursor. ">
<polygon fill="white" stroke="black" points="113,-456.5 113,-475.5 214,-475.5 214,-456.5 113,-456.5"/>
<text text-anchor="middle" x="163.5" y="-463.5" font-family="Helvetica,sans-Serif" font-size="10.00">TestCursorControl</text>
</a>
</g>
</g>
<!-- Node1&#45;&gt;Node37 -->
<g id="edge36" class="edge"><title>Node1&#45;&gt;Node37</title>
<path fill="none" stroke="midnightblue" d="M28.6569,-781.119C32.6884,-718.729 48.1645,-528.395 89,-485 95.4129,-478.185 103.922,-473.689 112.872,-470.75"/>
<polygon fill="midnightblue" stroke="midnightblue" points="25.1565,-781.018 28.0337,-791.215 32.1432,-781.45 25.1565,-781.018"/>
</g>
<!-- Node38 -->
<g id="node38" class="node"><title>Node38</title>
<g id="a_node38"><a xlink:href="class_test_draw_context_control.html" target="_top" xlink:title="Control to test obtaining a drawing API (NanoVG, LICE, Cairo, AGG etc) context and using that API wit...">
<polygon fill="white" stroke="black" points="98,-418.5 98,-437.5 229,-437.5 229,-418.5 98,-418.5"/>
<text text-anchor="middle" x="163.5" y="-425.5" font-family="Helvetica,sans-Serif" font-size="10.00">TestDrawContextControl</text>
</a>
</g>
</g>
<!-- Node1&#45;&gt;Node38 -->
<g id="edge37" class="edge"><title>Node1&#45;&gt;Node38</title>
<path fill="none" stroke="midnightblue" d="M28.19,-781.404C30.9448,-714.502 43.3286,-496.527 89,-447 92.4846,-443.221 96.6133,-440.153 101.109,-437.666"/>
<polygon fill="midnightblue" stroke="midnightblue" points="24.6912,-781.309 27.804,-791.436 31.686,-781.578 24.6912,-781.309"/>
</g>
<!-- Node39 -->
<g id="node39" class="node"><title>Node39</title>
<g id="a_node39"><a xlink:href="class_test_drop_shadow_control.html" target="_top" xlink:title="Control to test layer drop shadows. ">
<polygon fill="white" stroke="black" points="98,-380.5 98,-399.5 229,-399.5 229,-380.5 98,-380.5"/>
<text text-anchor="middle" x="163.5" y="-387.5" font-family="Helvetica,sans-Serif" font-size="10.00">TestDropShadowControl</text>
</a>
</g>
</g>
<!-- Node1&#45;&gt;Node39 -->
<g id="edge38" class="edge"><title>Node1&#45;&gt;Node39</title>
<path fill="none" stroke="midnightblue" d="M27.8416,-780.732C29.4764,-708.419 38.6904,-464.462 89,-409 92.4535,-405.193 96.5606,-402.105 101.042,-399.605"/>
<polygon fill="midnightblue" stroke="midnightblue" points="24.334,-781.082 27.6333,-791.15 31.3326,-781.222 24.334,-781.082"/>
</g>
<!-- Node40 -->
<g id="node40" class="node"><title>Node40</title>
<g id="a_node40"><a xlink:href="class_test_flex_box_control.html" target="_top" xlink:title="Control to test IGraphicsFlexBox. ">
<polygon fill="white" stroke="black" points="110,-342.5 110,-361.5 217,-361.5 217,-342.5 110,-342.5"/>
<text text-anchor="middle" x="163.5" y="-349.5" font-family="Helvetica,sans-Serif" font-size="10.00">TestFlexBoxControl</text>
</a>
</g>
</g>
<!-- Node1&#45;&gt;Node40 -->
<g id="edge39" class="edge"><title>Node1&#45;&gt;Node40</title>
<path fill="none" stroke="midnightblue" d="M27.5267,-781.26C28.0375,-705.259 33.7543,-432.74 89,-371 94.6248,-364.714 102.031,-360.384 109.976,-357.424"/>
<polygon fill="midnightblue" stroke="midnightblue" points="24.0265,-781.341 27.4832,-791.356 31.0264,-781.371 24.0265,-781.341"/>
</g>
<!-- Node41 -->
<g id="node41" class="node"><title>Node41</title>
<g id="a_node41"><a xlink:href="class_test_font_control.html" target="_top" xlink:title="Control to test drawing fonts. ">
<polygon fill="white" stroke="black" points="118,-304.5 118,-323.5 209,-323.5 209,-304.5 118,-304.5"/>
<text text-anchor="middle" x="163.5" y="-311.5" font-family="Helvetica,sans-Serif" font-size="10.00">TestFontControl</text>
</a>
</g>
</g>
<!-- Node1&#45;&gt;Node41 -->
<g id="edge40" class="edge"><title>Node1&#45;&gt;Node41</title>
<path fill="none" stroke="midnightblue" d="M27.2708,-781.088C26.7587,-700.664 28.9682,-400.863 89,-333 96.4227,-324.609 107.019,-319.696 117.864,-316.875"/>
<polygon fill="midnightblue" stroke="midnightblue" points="23.7727,-781.34 27.3595,-791.309 30.7725,-781.279 23.7727,-781.34"/>
</g>
<!-- Node42 -->
<g id="node42" class="node"><title>Node42</title>
<g id="a_node42"><a xlink:href="class_test_g_l_control.html" target="_top" xlink:title="TestGLControl">
<polygon fill="white" stroke="black" points="122,-266.5 122,-285.5 205,-285.5 205,-266.5 122,-266.5"/>
<text text-anchor="middle" x="163.5" y="-273.5" font-family="Helvetica,sans-Serif" font-size="10.00">TestGLControl</text>
</a>
</g>
</g>
<!-- Node1&#45;&gt;Node42 -->
<g id="edge41" class="edge"><title>Node1&#45;&gt;Node42</title>
<path fill="none" stroke="midnightblue" d="M27.0519,-781.115C25.5651,-696.714 24.1196,-369.065 89,-295 97.2503,-285.582 109.499,-280.537 121.643,-277.917"/>
<polygon fill="midnightblue" stroke="midnightblue" points="23.5573,-781.43 27.255,-791.359 30.556,-781.291 23.5573,-781.43"/>
</g>
<!-- Node43 -->
<g id="node43" class="node"><title>Node43</title>
<g id="a_node43"><a xlink:href="class_test_image_control.html" target="_top" xlink:title="Control to test drawing bitmaps. ">
<polygon fill="white" stroke="black" points="113.5,-228.5 113.5,-247.5 213.5,-247.5 213.5,-228.5 113.5,-228.5"/>
<text text-anchor="middle" x="163.5" y="-235.5" font-family="Helvetica,sans-Serif" font-size="10.00">TestImageControl</text>
</a>
</g>
</g>
<!-- Node1&#45;&gt;Node43 -->
<g id="edge42" class="edge"><title>Node1&#45;&gt;Node43</title>
<path fill="none" stroke="midnightblue" d="M28.4229,-781.226C32.9345,-688.255 53.884,-297.428 89,-257 95.3094,-249.736 103.997,-245.07 113.194,-242.111"/>
<polygon fill="midnightblue" stroke="midnightblue" points="24.9148,-781.314 27.9344,-791.47 31.9069,-781.648 24.9148,-781.314"/>
</g>
<!-- Node44 -->
<g id="node44" class="node"><title>Node44</title>
<g id="a_node44"><a xlink:href="class_test_keyboard_control.html" target="_top" xlink:title="Control to test keyboard input. ">
<polygon fill="white" stroke="black" points="106.5,-190.5 106.5,-209.5 220.5,-209.5 220.5,-190.5 106.5,-190.5"/>
<text text-anchor="middle" x="163.5" y="-197.5" font-family="Helvetica,sans-Serif" font-size="10.00">TestKeyboardControl</text>
</a>
</g>
</g>
<!-- Node1&#45;&gt;Node44 -->
<g id="edge43" class="edge"><title>Node1&#45;&gt;Node44</title>
<path fill="none" stroke="midnightblue" d="M28.2755,-781.076C32.2323,-683.896 51.463,-262.534 89,-219 93.7336,-213.51 99.8259,-209.502 106.474,-206.593"/>
<polygon fill="midnightblue" stroke="midnightblue" points="24.7702,-781.141 27.8685,-791.273 31.7646,-781.421 24.7702,-781.141"/>
</g>
<!-- Node45 -->
<g id="node45" class="node"><title>Node45</title>
<g id="a_node45"><a xlink:href="class_test_m_p_s_control.html" target="_top" xlink:title="TestMPSControl">
<polygon fill="white" stroke="black" points="118,-152.5 118,-171.5 209,-171.5 209,-152.5 118,-152.5"/>
<text text-anchor="middle" x="163.5" y="-159.5" font-family="Helvetica,sans-Serif" font-size="10.00">TestMPSControl</text>
</a>
</g>
</g>
<!-- Node1&#45;&gt;Node45 -->
<g id="edge44" class="edge"><title>Node1&#45;&gt;Node45</title>
<path fill="none" stroke="midnightblue" d="M28.1404,-781.053C31.5592,-680.013 49.0215,-227.668 89,-181 96.2884,-172.492 106.84,-167.539 117.684,-164.719"/>
<polygon fill="midnightblue" stroke="midnightblue" points="24.6398,-781.016 27.8072,-791.126 31.636,-781.247 24.6398,-781.016"/>
</g>
<!-- Node46 -->
<g id="node46" class="node"><title>Node46</title>
<g id="a_node46"><a xlink:href="class_test_shadow_gradient_control.html" target="_top" xlink:title="Control to test drawing shadows with gradients. ">
<polygon fill="white" stroke="black" points="89,-114.5 89,-133.5 238,-133.5 238,-114.5 89,-114.5"/>
<text text-anchor="middle" x="163.5" y="-121.5" font-family="Helvetica,sans-Serif" font-size="10.00">TestShadowGradientControl</text>
</a>
</g>
</g>
<!-- Node1&#45;&gt;Node46 -->
<g id="edge45" class="edge"><title>Node1&#45;&gt;Node46</title>
<path fill="none" stroke="midnightblue" d="M28.0261,-780.831C30.9474,-675.632 46.6026,-192.777 89,-143 92.2475,-139.187 96.1504,-136.088 100.443,-133.574"/>
<polygon fill="midnightblue" stroke="midnightblue" points="24.522,-780.936 27.7505,-791.027 31.5195,-781.125 24.522,-780.936"/>
</g>
<!-- Node47 -->
<g id="node47" class="node"><title>Node47</title>
<g id="a_node47"><a xlink:href="class_test_size_control.html" target="_top" xlink:title="Control to display the size of a region. ">
<polygon fill="white" stroke="black" points="118.5,-76.5 118.5,-95.5 208.5,-95.5 208.5,-76.5 118.5,-76.5"/>
<text text-anchor="middle" x="163.5" y="-83.5" font-family="Helvetica,sans-Serif" font-size="10.00">TestSizeControl</text>
</a>
</g>
</g>
<!-- Node1&#45;&gt;Node47 -->
<g id="edge46" class="edge"><title>Node1&#45;&gt;Node47</title>
<path fill="none" stroke="midnightblue" d="M27.905,-781.387C30.3,-673.782 44.0736,-158.017 89,-105 96.413,-96.252 107.276,-91.2555 118.389,-88.4711"/>
<polygon fill="midnightblue" stroke="midnightblue" points="24.4038,-781.409 27.6876,-791.482 31.4022,-781.56 24.4038,-781.409"/>
</g>
<!-- Node48 -->
<g id="node48" class="node"><title>Node48</title>
<g id="a_node48"><a xlink:href="class_test_s_v_g_control.html" target="_top" xlink:title="Control to test drawing SVGs. ">
<polygon fill="white" stroke="black" points="118,-38.5 118,-57.5 209,-57.5 209,-38.5 118,-38.5"/>
<text text-anchor="middle" x="163.5" y="-45.5" font-family="Helvetica,sans-Serif" font-size="10.00">TestSVGControl</text>
</a>
</g>
</g>
<!-- Node1&#45;&gt;Node48 -->
<g id="edge47" class="edge"><title>Node1&#45;&gt;Node48</title>
<path fill="none" stroke="midnightblue" d="M27.8106,-781.369C29.7418,-670.252 41.6189,-123.172 89,-67 96.3082,-58.3359 107.001,-53.3488 117.98,-50.546"/>
<polygon fill="midnightblue" stroke="midnightblue" points="24.3092,-781.43 27.6418,-791.487 31.3082,-781.546 24.3092,-781.43"/>
</g>
<!-- Node49 -->
<g id="node49" class="node"><title>Node49</title>
<g id="a_node49"><a xlink:href="class_test_text_control.html" target="_top" xlink:title="Control to test drawing text. ">
<polygon fill="white" stroke="black" points="119,-0.5 119,-19.5 208,-19.5 208,-0.5 119,-0.5"/>
<text text-anchor="middle" x="163.5" y="-7.5" font-family="Helvetica,sans-Serif" font-size="10.00">TestTextControl</text>
</a>
</g>
</g>
<!-- Node1&#45;&gt;Node49 -->
<g id="edge48" class="edge"><title>Node1&#45;&gt;Node49</title>
<path fill="none" stroke="midnightblue" d="M27.7288,-781.072C29.2279,-665.876 39.2012,-88.2839 89,-29 96.46,-20.1192 107.476,-15.0988 118.722,-12.3342"/>
<polygon fill="midnightblue" stroke="midnightblue" points="24.2268,-781.222 27.6031,-791.265 31.2263,-781.309 24.2268,-781.222"/>
</g>
<!-- Node6 -->
<g id="node6" class="node"><title>Node6</title>
<g id="a_node6"><a xlink:href="class_i_b_button_control.html" target="_top" xlink:title="A bitmap button/momentary switch control. ">
<polygon fill="white" stroke="black" points="287,-1494.5 287,-1513.5 379,-1513.5 379,-1494.5 287,-1494.5"/>
<text text-anchor="middle" x="333" y="-1501.5" font-family="Helvetica,sans-Serif" font-size="10.00">IBButtonControl</text>
</a>
</g>
</g>
<!-- Node5&#45;&gt;Node6 -->
<g id="edge5" class="edge"><title>Node5&#45;&gt;Node6</title>
<path fill="none" stroke="midnightblue" d="M216.62,-1477.82C240.235,-1483.18 267.782,-1489.43 290.037,-1494.48"/>
<polygon fill="midnightblue" stroke="midnightblue" points="217.294,-1474.39 206.767,-1475.59 215.745,-1481.21 217.294,-1474.39"/>
</g>
<!-- Node7 -->
<g id="node7" class="node"><title>Node7</title>
<g id="a_node7"><a xlink:href="class_i_s_v_g_button_control.html" target="_top" xlink:title="A vector button/momentary switch control which shows two SVG states. ">
<polygon fill="white" stroke="black" points="279.5,-1456.5 279.5,-1475.5 386.5,-1475.5 386.5,-1456.5 279.5,-1456.5"/>
<text text-anchor="middle" x="333" y="-1463.5" font-family="Helvetica,sans-Serif" font-size="10.00">ISVGButtonControl</text>
</a>
</g>
</g>
<!-- Node5&#45;&gt;Node7 -->
<g id="edge6" class="edge"><title>Node5&#45;&gt;Node7</title>
<path fill="none" stroke="midnightblue" d="M229.069,-1466C245.691,-1466 263.379,-1466 279.317,-1466"/>
<polygon fill="midnightblue" stroke="midnightblue" points="228.882,-1462.5 218.882,-1466 228.882,-1469.5 228.882,-1462.5"/>
</g>
<!-- Node8 -->
<g id="node8" class="node"><title>Node8</title>
<g id="a_node8"><a xlink:href="class_i_v_button_control.html" target="_top" xlink:title="A vector button/momentary switch control. ">
<polygon fill="white" stroke="black" points="287,-1418.5 287,-1437.5 379,-1437.5 379,-1418.5 287,-1418.5"/>
<text text-anchor="middle" x="333" y="-1425.5" font-family="Helvetica,sans-Serif" font-size="10.00">IVButtonControl</text>
</a>
</g>
</g>
<!-- Node5&#45;&gt;Node8 -->
<g id="edge7" class="edge"><title>Node5&#45;&gt;Node8</title>
<path fill="none" stroke="midnightblue" d="M216.62,-1454.18C240.235,-1448.82 267.782,-1442.57 290.037,-1437.52"/>
<polygon fill="midnightblue" stroke="midnightblue" points="215.745,-1450.79 206.767,-1456.41 217.294,-1457.61 215.745,-1450.79"/>
</g>
<!-- Node12 -->
<g id="node12" class="node"><title>Node12</title>
<g id="a_node12"><a xlink:href="class_test_dir_browse_control.html" target="_top" xlink:title="Control to test IDirBrowseControlBase. ">
<polygon fill="white" stroke="black" points="274,-1342.5 274,-1361.5 392,-1361.5 392,-1342.5 274,-1342.5"/>
<text text-anchor="middle" x="333" y="-1349.5" font-family="Helvetica,sans-Serif" font-size="10.00">TestDirBrowseControl</text>
</a>
</g>
</g>
<!-- Node11&#45;&gt;Node12 -->
<g id="edge11" class="edge"><title>Node11&#45;&gt;Node12</title>
<path fill="none" stroke="midnightblue" d="M236.739,-1352C249.179,-1352 261.965,-1352 273.97,-1352"/>
<polygon fill="midnightblue" stroke="midnightblue" points="236.395,-1348.5 226.395,-1352 236.395,-1355.5 236.395,-1348.5"/>
</g>
<!-- Node16 -->
<g id="node16" class="node"><title>Node16</title>
<g id="a_node16"><a xlink:href="class_i_b_knob_control.html" target="_top" xlink:title="A bitmap knob/dial control that draws a frame from a stacked bitmap. ">
<polygon fill="white" stroke="red" points="291,-1247.5 291,-1266.5 375,-1266.5 375,-1247.5 291,-1247.5"/>
<text text-anchor="middle" x="333" y="-1254.5" font-family="Helvetica,sans-Serif" font-size="10.00">IBKnobControl</text>
</a>
</g>
</g>
<!-- Node15&#45;&gt;Node16 -->
<g id="edge15" class="edge"><title>Node15&#45;&gt;Node16</title>
<path fill="none" stroke="midnightblue" d="M224.243,-1244.78C246.306,-1247.28 270.796,-1250.06 290.846,-1252.33"/>
<polygon fill="midnightblue" stroke="midnightblue" points="224.633,-1241.3 214.302,-1243.65 223.844,-1248.25 224.633,-1241.3"/>
</g>
<!-- Node17 -->
<g id="node17" class="node"><title>Node17</title>
<g id="a_node17"><a xlink:href="class_i_s_v_g_knob_control.html" target="_top" xlink:title="A vector knob/dial control which rotates an SVG image. ">
<polygon fill="white" stroke="black" points="284,-1209.5 284,-1228.5 382,-1228.5 382,-1209.5 284,-1209.5"/>
<text text-anchor="middle" x="333" y="-1216.5" font-family="Helvetica,sans-Serif" font-size="10.00">ISVGKnobControl</text>
</a>
</g>
</g>
<!-- Node15&#45;&gt;Node17 -->
<g id="edge16" class="edge"><title>Node15&#45;&gt;Node17</title>
<path fill="none" stroke="midnightblue" d="M224.316,-1231.21C243.845,-1229 265.269,-1226.57 283.829,-1224.46"/>
<polygon fill="midnightblue" stroke="midnightblue" points="223.844,-1227.75 214.302,-1232.35 224.633,-1234.7 223.844,-1227.75"/>
</g>
</g>
</svg>
