<?xml version="1.0" encoding="UTF-8" standalone="no"?>
<!DOCTYPE svg PUBLIC "-//W3C//DTD SVG 1.1//EN"
 "http://www.w3.org/Graphics/SVG/1.1/DTD/svg11.dtd">
<!-- Generated by graphviz version 2.38.0 (20140413.2041)
 -->
<!-- Title: IVectorBase Pages: 1 -->
<svg width="431pt" height="595pt"
 viewBox="0.00 0.00 431.00 595.00" xmlns="http://www.w3.org/2000/svg" xmlns:xlink="http://www.w3.org/1999/xlink">
<g id="graph0" class="graph" transform="scale(1 1) rotate(0) translate(4 591)">
<title>IVectorBase</title>
<polygon fill="white" stroke="none" points="-4,4 -4,-591 427,-591 427,4 -4,4"/>
<!-- Node1 -->
<g id="node1" class="node"><title>Node1</title>
<polygon fill="#bfbfbf" stroke="black" points="0,-320.5 0,-339.5 74,-339.5 74,-320.5 0,-320.5"/>
<text text-anchor="middle" x="37" y="-327.5" font-family="Helvetica,sans-Serif" font-size="10.00">IVectorBase</text>
</g>
<!-- Node2 -->
<g id="node2" class="node"><title>Node2</title>
<g id="a_node2"><a xlink:href="class_i_f_p_s_display_control.html" target="_top" xlink:title="Performance display meter, based on code from NanoVG This is a special control that lives outside the...">
<polygon fill="white" stroke="black" points="127,-567.5 127,-586.5 233,-586.5 233,-567.5 127,-567.5"/>
<text text-anchor="middle" x="180" y="-574.5" font-family="Helvetica,sans-Serif" font-size="10.00">IFPSDisplayControl</text>
</a>
</g>
</g>
<!-- Node1&#45;&gt;Node2 -->
<g id="edge1" class="edge"><title>Node1&#45;&gt;Node2</title>
<path fill="none" stroke="midnightblue" d="M38.2556,-349.937C39.9377,-394.041 50.3275,-500.506 110,-558 114.832,-562.655 120.695,-566.192 126.94,-568.875"/>
<polygon fill="midnightblue" stroke="midnightblue" points="41.7537,-349.814 37.9875,-339.911 34.7562,-350.001 41.7537,-349.814"/>
</g>
<!-- Node3 -->
<g id="node3" class="node"><title>Node3</title>
<g id="a_node3"><a xlink:href="class_i_v_button_control.html" target="_top" xlink:title="A vector button/momentary switch control. ">
<polygon fill="white" stroke="black" points="134,-529.5 134,-548.5 226,-548.5 226,-529.5 134,-529.5"/>
<text text-anchor="middle" x="180" y="-536.5" font-family="Helvetica,sans-Serif" font-size="10.00">IVButtonControl</text>
</a>
</g>
</g>
<!-- Node1&#45;&gt;Node3 -->
<g id="edge2" class="edge"><title>Node1&#45;&gt;Node3</title>
<path fill="none" stroke="midnightblue" d="M39.7245,-349.965C44.1528,-388.624 59.4173,-473.94 110,-520 116.706,-526.107 125.199,-530.276 133.913,-533.116"/>
<polygon fill="midnightblue" stroke="midnightblue" points="43.1607,-349.157 38.671,-339.56 36.1963,-349.862 43.1607,-349.157"/>
</g>
<!-- Node4 -->
<g id="node4" class="node"><title>Node4</title>
<g id="a_node4"><a xlink:href="class_i_v_color_swatch_control.html" target="_top" xlink:title="IVColorSwatchControl">
<polygon fill="white" stroke="black" points="120.5,-491.5 120.5,-510.5 239.5,-510.5 239.5,-491.5 120.5,-491.5"/>
<text text-anchor="middle" x="180" y="-498.5" font-family="Helvetica,sans-Serif" font-size="10.00">IVColorSwatchControl</text>
</a>
</g>
</g>
<!-- Node1&#45;&gt;Node4 -->
<g id="edge3" class="edge"><title>Node1&#45;&gt;Node4</title>
<path fill="none" stroke="midnightblue" d="M41.7643,-349.544C49.0506,-381.995 68.196,-446.892 110,-482 114.567,-485.836 119.847,-488.901 125.413,-491.35"/>
<polygon fill="midnightblue" stroke="midnightblue" points="45.1405,-348.59 39.6639,-339.52 38.2893,-350.026 45.1405,-348.59"/>
</g>
<!-- Node5 -->
<g id="node5" class="node"><title>Node5</title>
<g id="a_node5"><a xlink:href="class_i_v_display_control.html" target="_top" xlink:title="IVDisplayControl">
<polygon fill="white" stroke="black" points="132.5,-453.5 132.5,-472.5 227.5,-472.5 227.5,-453.5 132.5,-453.5"/>
<text text-anchor="middle" x="180" y="-460.5" font-family="Helvetica,sans-Serif" font-size="10.00">IVDisplayControl</text>
</a>
</g>
</g>
<!-- Node1&#45;&gt;Node5 -->
<g id="edge4" class="edge"><title>Node1&#45;&gt;Node5</title>
<path fill="none" stroke="midnightblue" d="M45.0261,-349.305C55.3167,-374.843 76.931,-419.477 110,-444 116.587,-448.885 124.364,-452.514 132.279,-455.21"/>
<polygon fill="midnightblue" stroke="midnightblue" points="48.1664,-347.72 41.3087,-339.644 41.6333,-350.234 48.1664,-347.72"/>
</g>
<!-- Node6 -->
<g id="node6" class="node"><title>Node6</title>
<g id="a_node6"><a xlink:href="class_i_v_group_control.html" target="_top" xlink:title="IVGroupControl">
<polygon fill="white" stroke="black" points="135.5,-415.5 135.5,-434.5 224.5,-434.5 224.5,-415.5 135.5,-415.5"/>
<text text-anchor="middle" x="180" y="-422.5" font-family="Helvetica,sans-Serif" font-size="10.00">IVGroupControl</text>
</a>
</g>
</g>
<!-- Node1&#45;&gt;Node6 -->
<g id="edge5" class="edge"><title>Node1&#45;&gt;Node6</title>
<path fill="none" stroke="midnightblue" d="M50.2394,-347.703C63.1487,-365.058 85.0511,-391.026 110,-406 117.67,-410.604 126.484,-414.121 135.192,-416.798"/>
<polygon fill="midnightblue" stroke="midnightblue" points="53.0259,-345.583 44.34,-339.516 47.3468,-349.675 53.0259,-345.583"/>
</g>
<!-- Node7 -->
<g id="node7" class="node"><title>Node7</title>
<g id="a_node7"><a xlink:href="class_i_v_knob_control.html" target="_top" xlink:title="A vector knob control drawn using graphics primitves. ">
<polygon fill="white" stroke="black" points="138,-377.5 138,-396.5 222,-396.5 222,-377.5 138,-377.5"/>
<text text-anchor="middle" x="180" y="-384.5" font-family="Helvetica,sans-Serif" font-size="10.00">IVKnobControl</text>
</a>
</g>
</g>
<!-- Node1&#45;&gt;Node7 -->
<g id="edge6" class="edge"><title>Node1&#45;&gt;Node7</title>
<path fill="none" stroke="midnightblue" d="M62.5875,-344.684C76.2161,-352.382 93.6645,-361.529 110,-368 119.126,-371.615 129.19,-374.808 138.745,-377.496"/>
<polygon fill="midnightblue" stroke="midnightblue" points="64.2357,-341.594 53.8233,-339.637 60.7423,-347.66 64.2357,-341.594"/>
</g>
<!-- Node8 -->
<g id="node8" class="node"><title>Node8</title>
<g id="a_node8"><a xlink:href="class_i_v_label_control.html" target="_top" xlink:title="IVLabelControl">
<polygon fill="white" stroke="black" points="137,-339.5 137,-358.5 223,-358.5 223,-339.5 137,-339.5"/>
<text text-anchor="middle" x="180" y="-346.5" font-family="Helvetica,sans-Serif" font-size="10.00">IVLabelControl</text>
</a>
</g>
</g>
<!-- Node1&#45;&gt;Node8 -->
<g id="edge7" class="edge"><title>Node1&#45;&gt;Node8</title>
<path fill="none" stroke="midnightblue" d="M84.5066,-336.267C101.379,-338.54 120.333,-341.094 136.812,-343.315"/>
<polygon fill="midnightblue" stroke="midnightblue" points="84.6889,-332.76 74.311,-334.893 83.754,-339.697 84.6889,-332.76"/>
</g>
<!-- Node9 -->
<g id="node9" class="node"><title>Node9</title>
<g id="a_node9"><a xlink:href="class_i_v_plot_control.html" target="_top" xlink:title="a vector plot to display functions and waveforms ">
<polygon fill="white" stroke="black" points="141,-301.5 141,-320.5 219,-320.5 219,-301.5 141,-301.5"/>
<text text-anchor="middle" x="180" y="-308.5" font-family="Helvetica,sans-Serif" font-size="10.00">IVPlotControl</text>
</a>
</g>
</g>
<!-- Node1&#45;&gt;Node9 -->
<g id="edge8" class="edge"><title>Node1&#45;&gt;Node9</title>
<path fill="none" stroke="midnightblue" d="M84.4597,-323.739C102.736,-321.277 123.462,-318.484 140.84,-316.142"/>
<polygon fill="midnightblue" stroke="midnightblue" points="83.754,-320.303 74.311,-325.107 84.6889,-327.24 83.754,-320.303"/>
</g>
<!-- Node10 -->
<g id="node10" class="node"><title>Node10</title>
<g id="a_node10"><a xlink:href="class_i_v_scope_control.html" target="_top" xlink:title="Vectorial multichannel capable oscilloscope control. ">
<polygon fill="white" stroke="black" points="110,-252 110,-282 250,-282 250,-252 110,-252"/>
<text text-anchor="start" x="118" y="-270" font-family="Helvetica,sans-Serif" font-size="10.00">IVScopeControl&lt; MAXNC,</text>
<text text-anchor="middle" x="180" y="-259" font-family="Helvetica,sans-Serif" font-size="10.00"> MAXBUF, QUEUE_SIZE &gt;</text>
</a>
</g>
</g>
<!-- Node1&#45;&gt;Node10 -->
<g id="edge9" class="edge"><title>Node1&#45;&gt;Node10</title>
<path fill="none" stroke="midnightblue" d="M63.3391,-315.527C76.9474,-308.036 94.1425,-299.017 110,-292 117.806,-288.546 126.253,-285.187 134.47,-282.11"/>
<polygon fill="midnightblue" stroke="midnightblue" points="61.5822,-312.499 54.5514,-320.425 64.9902,-318.613 61.5822,-312.499"/>
</g>
<!-- Node11 -->
<g id="node11" class="node"><title>Node11</title>
<g id="a_node11"><a xlink:href="class_i_v_slider_control.html" target="_top" xlink:title="A vector slider control. ">
<polygon fill="white" stroke="black" points="136.5,-213.5 136.5,-232.5 223.5,-232.5 223.5,-213.5 136.5,-213.5"/>
<text text-anchor="middle" x="180" y="-220.5" font-family="Helvetica,sans-Serif" font-size="10.00">IVSliderControl</text>
</a>
</g>
</g>
<!-- Node1&#45;&gt;Node11 -->
<g id="edge10" class="edge"><title>Node1&#45;&gt;Node11</title>
<path fill="none" stroke="midnightblue" d="M48.5733,-311.564C60.8623,-291.761 82.9549,-260.75 110,-243 117.925,-237.799 127.225,-233.923 136.387,-231.045"/>
<polygon fill="midnightblue" stroke="midnightblue" points="45.489,-309.902 43.3492,-320.279 51.4928,-313.502 45.489,-309.902"/>
</g>
<!-- Node12 -->
<g id="node12" class="node"><title>Node12</title>
<g id="a_node12"><a xlink:href="class_i_v_switch_control.html" target="_top" xlink:title="A vector switch control. ">
<polygon fill="white" stroke="black" points="134.5,-175.5 134.5,-194.5 225.5,-194.5 225.5,-175.5 134.5,-175.5"/>
<text text-anchor="middle" x="180" y="-182.5" font-family="Helvetica,sans-Serif" font-size="10.00">IVSwitchControl</text>
</a>
</g>
</g>
<!-- Node1&#45;&gt;Node12 -->
<g id="edge11" class="edge"><title>Node1&#45;&gt;Node12</title>
<path fill="none" stroke="midnightblue" d="M43.7834,-310.676C53.1134,-282.859 74.1599,-231.826 110,-204 117.066,-198.514 125.616,-194.611 134.255,-191.834"/>
<polygon fill="midnightblue" stroke="midnightblue" points="40.3806,-309.827 40.6801,-320.417 47.0504,-311.951 40.3806,-309.827"/>
</g>
<!-- Node15 -->
<g id="node15" class="node"><title>Node15</title>
<g id="a_node15"><a xlink:href="class_i_v_tab_switch_control.html" target="_top" xlink:title="A vector &quot;tab&quot; multi switch control. ">
<polygon fill="white" stroke="black" points="126.5,-137.5 126.5,-156.5 233.5,-156.5 233.5,-137.5 126.5,-137.5"/>
<text text-anchor="middle" x="180" y="-144.5" font-family="Helvetica,sans-Serif" font-size="10.00">IVTabSwitchControl</text>
</a>
</g>
</g>
<!-- Node1&#45;&gt;Node15 -->
<g id="edge14" class="edge"><title>Node1&#45;&gt;Node15</title>
<path fill="none" stroke="midnightblue" d="M41.1117,-309.898C47.5478,-275.263 65.6196,-204.371 110,-166 114.794,-161.856 120.416,-158.608 126.346,-156.065"/>
<polygon fill="midnightblue" stroke="midnightblue" points="37.5935,-309.707 39.3539,-320.154 44.4929,-310.889 37.5935,-309.707"/>
</g>
<!-- Node17 -->
<g id="node17" class="node"><title>Node17</title>
<g id="a_node17"><a xlink:href="class_i_v_track_control_base.html" target="_top" xlink:title="A base class for mult&#45;strip/track controls, such as multi&#45;sliders, meters. ">
<polygon fill="white" stroke="black" points="126,-93.5 126,-112.5 234,-112.5 234,-93.5 126,-93.5"/>
<text text-anchor="middle" x="180" y="-100.5" font-family="Helvetica,sans-Serif" font-size="10.00">IVTrackControlBase</text>
</a>
</g>
</g>
<!-- Node1&#45;&gt;Node17 -->
<g id="edge16" class="edge"><title>Node1&#45;&gt;Node17</title>
<path fill="none" stroke="midnightblue" d="M39.5237,-310.501C43.6553,-270.755 58.5085,-179.761 110,-128 116.829,-121.135 125.685,-116.143 134.762,-112.516"/>
<polygon fill="midnightblue" stroke="midnightblue" points="36.0363,-310.204 38.6048,-320.482 43.0069,-310.845 36.0363,-310.204"/>
</g>
<!-- Node21 -->
<g id="node21" class="node"><title>Node21</title>
<g id="a_node21"><a xlink:href="class_i_v_x_y_pad_control.html" target="_top" xlink:title="IVXYPadControl">
<polygon fill="white" stroke="black" points="135.5,-55.5 135.5,-74.5 224.5,-74.5 224.5,-55.5 135.5,-55.5"/>
<text text-anchor="middle" x="180" y="-62.5" font-family="Helvetica,sans-Serif" font-size="10.00">IVXYPadControl</text>
</a>
</g>
</g>
<!-- Node1&#45;&gt;Node21 -->
<g id="edge20" class="edge"><title>Node1&#45;&gt;Node21</title>
<path fill="none" stroke="midnightblue" d="M37.7078,-310.121C38.1507,-263.637 45.9655,-147.016 110,-84 116.908,-77.2022 126.012,-72.783 135.332,-69.9239"/>
<polygon fill="midnightblue" stroke="midnightblue" points="34.2081,-310.359 37.7243,-320.353 41.2081,-310.347 34.2081,-310.359"/>
</g>
<!-- Node13 -->
<g id="node13" class="node"><title>Node13</title>
<g id="a_node13"><a xlink:href="class_i_v_slide_switch_control.html" target="_top" xlink:title="/todo. ">
<polygon fill="white" stroke="black" points="297.5,-213.5 297.5,-232.5 411.5,-232.5 411.5,-213.5 297.5,-213.5"/>
<text text-anchor="middle" x="354.5" y="-220.5" font-family="Helvetica,sans-Serif" font-size="10.00">IVSlideSwitchControl</text>
</a>
</g>
</g>
<!-- Node12&#45;&gt;Node13 -->
<g id="edge12" class="edge"><title>Node12&#45;&gt;Node13</title>
<path fill="none" stroke="midnightblue" d="M234.351,-196.753C258.742,-202.126 287.263,-208.409 310.284,-213.48"/>
<polygon fill="midnightblue" stroke="midnightblue" points="235.048,-193.322 224.529,-194.589 233.542,-200.158 235.048,-193.322"/>
</g>
<!-- Node14 -->
<g id="node14" class="node"><title>Node14</title>
<g id="a_node14"><a xlink:href="class_i_v_toggle_control.html" target="_top" xlink:title="A vector toggle control. ">
<polygon fill="white" stroke="black" points="309.5,-175.5 309.5,-194.5 399.5,-194.5 399.5,-175.5 309.5,-175.5"/>
<text text-anchor="middle" x="354.5" y="-182.5" font-family="Helvetica,sans-Serif" font-size="10.00">IVToggleControl</text>
</a>
</g>
</g>
<!-- Node12&#45;&gt;Node14 -->
<g id="edge13" class="edge"><title>Node12&#45;&gt;Node14</title>
<path fill="none" stroke="midnightblue" d="M236.126,-185C259.821,-185 287.136,-185 309.45,-185"/>
<polygon fill="midnightblue" stroke="midnightblue" points="235.872,-181.5 225.872,-185 235.872,-188.5 235.872,-181.5"/>
</g>
<!-- Node16 -->
<g id="node16" class="node"><title>Node16</title>
<g id="a_node16"><a xlink:href="class_i_v_radio_button_control.html" target="_top" xlink:title="IVRadioButtonControl">
<polygon fill="white" stroke="black" points="295,-137.5 295,-156.5 414,-156.5 414,-137.5 295,-137.5"/>
<text text-anchor="middle" x="354.5" y="-144.5" font-family="Helvetica,sans-Serif" font-size="10.00">IVRadioButtonControl</text>
</a>
</g>
</g>
<!-- Node15&#45;&gt;Node16 -->
<g id="edge15" class="edge"><title>Node15&#45;&gt;Node16</title>
<path fill="none" stroke="midnightblue" d="M243.867,-147C260.506,-147 278.401,-147 294.81,-147"/>
<polygon fill="midnightblue" stroke="midnightblue" points="243.693,-143.5 233.693,-147 243.693,-150.5 243.693,-143.5"/>
</g>
<!-- Node18 -->
<g id="node18" class="node"><title>Node18</title>
<g id="a_node18"><a xlink:href="class_i_v_meter_control.html" target="_top" xlink:title="Vectorial multichannel capable meter control. ">
<polygon fill="white" stroke="black" points="286,-88 286,-118 423,-118 423,-88 286,-88"/>
<text text-anchor="start" x="294" y="-106" font-family="Helvetica,sans-Serif" font-size="10.00">IVMeterControl&lt; MAXNC,</text>
<text text-anchor="middle" x="354.5" y="-95" font-family="Helvetica,sans-Serif" font-size="10.00"> QUEUE_SIZE &gt;</text>
</a>
</g>
</g>
<!-- Node17&#45;&gt;Node18 -->
<g id="edge17" class="edge"><title>Node17&#45;&gt;Node18</title>
<path fill="none" stroke="midnightblue" d="M244.323,-103C257.848,-103 272.184,-103 285.864,-103"/>
<polygon fill="midnightblue" stroke="midnightblue" points="244.163,-99.5001 234.163,-103 244.163,-106.5 244.163,-99.5001"/>
</g>
<!-- Node19 -->
<g id="node19" class="node"><title>Node19</title>
<g id="a_node19"><a xlink:href="class_i_v_multi_slider_control.html" target="_top" xlink:title="A vectorial multi&#45;slider control. ">
<polygon fill="white" stroke="black" points="299.5,-39 299.5,-69 409.5,-69 409.5,-39 299.5,-39"/>
<text text-anchor="start" x="307.5" y="-57" font-family="Helvetica,sans-Serif" font-size="10.00">IVMultiSliderControl</text>
<text text-anchor="middle" x="354.5" y="-46" font-family="Helvetica,sans-Serif" font-size="10.00">&lt; MAXNC &gt;</text>
</a>
</g>
</g>
<!-- Node17&#45;&gt;Node19 -->
<g id="edge18" class="edge"><title>Node17&#45;&gt;Node19</title>
<path fill="none" stroke="midnightblue" d="M225.785,-90.762C233.851,-88.531 242.18,-86.21 250,-84 267.013,-79.1922 285.569,-73.8459 302.211,-69.0139"/>
<polygon fill="midnightblue" stroke="midnightblue" points="224.837,-87.3926 216.127,-93.4252 226.698,-94.1407 224.837,-87.3926"/>
</g>
<!-- Node20 -->
<g id="node20" class="node"><title>Node20</title>
<g id="a_node20"><a xlink:href="class_i_v_range_slider_control.html" target="_top" xlink:title="IVRangeSliderControl">
<polygon fill="white" stroke="black" points="296,-0.5 296,-19.5 413,-19.5 413,-0.5 296,-0.5"/>
<text text-anchor="middle" x="354.5" y="-7.5" font-family="Helvetica,sans-Serif" font-size="10.00">IVRangeSliderControl</text>
</a>
</g>
</g>
<!-- Node17&#45;&gt;Node20 -->
<g id="edge19" class="edge"><title>Node17&#45;&gt;Node20</title>
<path fill="none" stroke="midnightblue" d="M241.52,-89.2455C244.49,-87.6815 247.339,-85.9398 250,-84 273.607,-66.7888 262.442,-46.2782 286,-29 291.301,-25.112 297.369,-22.0189 303.645,-19.5583"/>
<polygon fill="midnightblue" stroke="midnightblue" points="239.973,-86.1038 232.314,-93.4242 242.867,-92.4779 239.973,-86.1038"/>
</g>
</g>
</svg>
